HIERARCHY
ROOT Hips
{
	OFFSET 0.000000 103.266502 0.000000
	CHANNELS 6 Xposition Yposition Zposition Xrotation Yrotation Zrotation 
	JOINT Spine
	{
		OFFSET -0.002400 12.777504 0.315300
		CHANNELS 3 Xrotation Yrotation Zrotation
		JOINT Spine1
		{
			OFFSET -0.002067 5.816869 0.032633
			CHANNELS 3 Xrotation Yrotation Zrotation
			JOINT Spine1_split
			{
				OFFSET -0.002067 5.816869 0.032633
				CHANNELS 3 Xrotation Yrotation Zrotation
				JOINT Spine2
				{
					OFFSET -0.002067 5.816869 0.032633
					CHANNELS 3 Xrotation Yrotation Zrotation
					JOINT Neck
					{
						OFFSET -0.003700 21.199493 -0.826900
						CHANNELS 3 Xrotation Yrotation Zrotation
						JOINT Head
						{
							OFFSET 0.000000 20.442200 4.834800
							CHANNELS 3 Xrotation Yrotation Zrotation
							JOINT HeadTop_End
							{
								OFFSET 0.000000 34.668396 4.968400
								CHANNELS 3 Xrotation Yrotation Zrotation
								End Site
								{
									OFFSET 0.000000 0.000000 0.000000
								}
							}
						}
					}
					JOINT LeftShoulder
					{
						OFFSET 3.288150 8.794197 -1.372250
						CHANNELS 3 Xrotation Yrotation Zrotation
						JOINT LeftShoulder_split
						{
							OFFSET 3.288150 8.794197 -1.372250
							CHANNELS 3 Xrotation Yrotation Zrotation
							JOINT LeftArm
							{
								OFFSET 11.953299 -2.279007 -0.146200
								CHANNELS 3 Xrotation Yrotation Zrotation
								JOINT LeftForeArm
								{
									OFFSET 18.448900 0.000000 0.000000
									CHANNELS 3 Xrotation Yrotation Zrotation
									JOINT LeftHand
									{
										OFFSET 29.527798 0.000000 0.000000
										CHANNELS 3 Xrotation Yrotation Zrotation
										JOINT LeftHandThumb1
										{
											OFFSET 10.739754 -2.369614 9.225399
											CHANNELS 3 Xrotation Yrotation Zrotation
											JOINT LeftHandThumb2
											{
												OFFSET 4.926170 -2.844131 2.844125
												CHANNELS 3 Xrotation Yrotation Zrotation
												JOINT LeftHandThumb3
												{
													OFFSET 4.614891 -2.664413 2.664409
													CHANNELS 3 Xrotation Yrotation Zrotation
													JOINT LeftHandThumb4
													{
														OFFSET 4.432465 -2.559082 2.559083
														CHANNELS 3 Xrotation Yrotation Zrotation
														End Site
														{
															OFFSET 0.000000 0.000000 0.000000
														}
													}
												}
											}
										}
										JOINT LeftHandIndex1
										{
											OFFSET 26.467674 0.187653 6.405298
											CHANNELS 3 Xrotation Yrotation Zrotation
											JOINT LeftHandIndex2
											{
												OFFSET 8.792900 0.000000 0.000000
												CHANNELS 3 Xrotation Yrotation Zrotation
												JOINT LeftHandIndex3
												{
													OFFSET 10.075203 0.000000 0.000000
													CHANNELS 3 Xrotation Yrotation Zrotation
													End Site
													{
														OFFSET 0.000000 0.000000 0.000000
													}
												}
											}
										}
										JOINT LeftHandMiddle1
										{
											OFFSET 25.764404 0.000000 0.000000
											CHANNELS 3 Xrotation Yrotation Zrotation
											JOINT LeftHandMiddle2
											{
												OFFSET 9.393974 0.000000 0.000000
												CHANNELS 3 Xrotation Yrotation Zrotation
												JOINT LeftHandMiddle3
												{
													OFFSET 10.771950 0.000000 0.000000
													CHANNELS 3 Xrotation Yrotation Zrotation
													End Site
													{
														OFFSET 0.000000 0.000000 0.000000
													}
												}
											}
										}
										JOINT LeftHandRing1
										{
											OFFSET 24.660927 0.144547 -6.225808
											CHANNELS 3 Xrotation Yrotation Zrotation
											JOINT LeftHandRing2
											{
												OFFSET 9.393799 0.000000 0.000000
												CHANNELS 3 Xrotation Yrotation Zrotation
												JOINT LeftHandRing3
												{
													OFFSET 9.928497 0.000000 0.000000
													CHANNELS 3 Xrotation Yrotation Zrotation
													End Site
													{
														OFFSET 0.000000 0.000000 0.000000
													}
												}
											}
										}
										JOINT LeftHandPinky1
										{
											OFFSET 23.655350 0.125290 -12.815412
											CHANNELS 3 Xrotation Yrotation Zrotation
											JOINT LeftHandPinky2
											{
												OFFSET 8.425102 0.000000 0.000000
												CHANNELS 3 Xrotation Yrotation Zrotation
												JOINT LeftHandPinky3
												{
													OFFSET 8.147003 0.000000 0.000000
													CHANNELS 3 Xrotation Yrotation Zrotation
													End Site
													{
														OFFSET 0.000000 0.000000 0.000000
													}
												}
											}
										}
									}
								}
							}
						}
					}
					JOINT RightShoulder
					{
						OFFSET -3.249400 8.794197 -1.372250
						CHANNELS 3 Xrotation Yrotation Zrotation
						JOINT RightShoulder_split
						{
							OFFSET -3.249400 8.794197 -1.372250
							CHANNELS 3 Xrotation Yrotation Zrotation
							JOINT RightArm
							{
								OFFSET -11.953299 -2.279007 -0.146200
								CHANNELS 3 Xrotation Yrotation Zrotation
								JOINT RightForeArm
								{
									OFFSET -18.448900 0.000000 0.000000
									CHANNELS 3 Xrotation Yrotation Zrotation
									JOINT RightHand
									{
										OFFSET -29.527802 0.000000 0.000000
										CHANNELS 3 Xrotation Yrotation Zrotation
										JOINT RightHandThumb1
										{
											OFFSET -10.739754 -2.369614 9.225399
											CHANNELS 3 Xrotation Yrotation Zrotation
											JOINT RightHandThumb2
											{
												OFFSET -4.926170 -2.844131 2.844125
												CHANNELS 3 Xrotation Yrotation Zrotation
												JOINT RightHandThumb3
												{
													OFFSET -4.614891 -2.664413 2.664409
													CHANNELS 3 Xrotation Yrotation Zrotation
													JOINT RightHandThumb4
													{
														OFFSET -4.432465 -2.559082 2.559083
														CHANNELS 3 Xrotation Yrotation Zrotation
														End Site
														{
															OFFSET 0.000000 0.000000 0.000000
														}
													}
												}
											}
										}
										JOINT RightHandIndex1
										{
											OFFSET -26.467674 0.187653 6.405298
											CHANNELS 3 Xrotation Yrotation Zrotation
											JOINT RightHandIndex2
											{
												OFFSET -8.792900 0.000000 0.000000
												CHANNELS 3 Xrotation Yrotation Zrotation
												JOINT RightHandIndex3
												{
													OFFSET -10.075203 0.000000 0.000000
													CHANNELS 3 Xrotation Yrotation Zrotation
													End Site
													{
														OFFSET 0.000000 0.000000 0.000000
													}
												}
											}
										}
										JOINT RightHandMiddle1
										{
											OFFSET -25.764404 0.000000 0.000000
											CHANNELS 3 Xrotation Yrotation Zrotation
											JOINT RightHandMiddle2
											{
												OFFSET -9.393974 0.000000 0.000000
												CHANNELS 3 Xrotation Yrotation Zrotation
												JOINT RightHandMiddle3
												{
													OFFSET -10.771950 0.000000 0.000000
													CHANNELS 3 Xrotation Yrotation Zrotation
													End Site
													{
														OFFSET 0.000000 0.000000 0.000000
													}
												}
											}
										}
										JOINT RightHandRing1
										{
											OFFSET -24.660927 0.144547 -6.225808
											CHANNELS 3 Xrotation Yrotation Zrotation
											JOINT RightHandRing2
											{
												OFFSET -9.393799 0.000000 0.000000
												CHANNELS 3 Xrotation Yrotation Zrotation
												JOINT RightHandRing3
												{
													OFFSET -9.928497 0.000000 0.000000
													CHANNELS 3 Xrotation Yrotation Zrotation
													End Site
													{
														OFFSET 0.000000 0.000000 0.000000
													}
												}
											}
										}
										JOINT RightHandPinky1
										{
											OFFSET -23.655350 0.125290 -12.815412
											CHANNELS 3 Xrotation Yrotation Zrotation
											JOINT RightHandPinky2
											{
												OFFSET -8.425102 0.000000 0.000000
												CHANNELS 3 Xrotation Yrotation Zrotation
												JOINT RightHandPinky3
												{
													OFFSET -8.147003 0.000000 0.000000
													CHANNELS 3 Xrotation Yrotation Zrotation
													End Site
													{
														OFFSET 0.000000 0.000000 0.000000
													}
												}
											}
										}
									}
								}
							}
						}
					}
				}
			}
		}
	}
	JOINT LeftUpLeg
	{
		OFFSET 11.394100 -6.187798 -0.413800
		CHANNELS 3 Xrotation Yrotation Zrotation
		JOINT LeftLeg
		{
			OFFSET 0.430247 -32.302673 3.732800
			CHANNELS 3 Xrotation Yrotation Zrotation
			JOINT LeftFoot
			{
				OFFSET -0.430247 -48.264931 -6.423300
				CHANNELS 3 Xrotation Yrotation Zrotation
				JOINT LeftToeBase
				{
					OFFSET 4.230900 -16.068199 23.438400
					CHANNELS 3 Xrotation Yrotation Zrotation
					JOINT LeftToe_End
					{
						OFFSET 4.510700 0.695400 19.974600
						CHANNELS 3 Xrotation Yrotation Zrotation
						End Site
						{
							OFFSET 0.000000 0.000000 0.000000
						}
					}
				}
			}
		}
	}
	JOINT RightUpLeg
	{
		OFFSET -11.333700 -6.187798 -0.413800
		CHANNELS 3 Xrotation Yrotation Zrotation
		JOINT RightLeg
		{
			OFFSET -0.430392 -32.302628 3.733000
			CHANNELS 3 Xrotation Yrotation Zrotation
			JOINT RightFoot
			{
				OFFSET 0.430392 -48.264973 -6.423500
				CHANNELS 3 Xrotation Yrotation Zrotation
				JOINT RightToeBase
				{
					OFFSET -4.230900 -16.068199 23.438400
					CHANNELS 3 Xrotation Yrotation Zrotation
					JOINT RightToe_End
					{
						OFFSET -4.510700 0.695400 19.974600
						CHANNELS 3 Xrotation Yrotation Zrotation
						End Site
						{
							OFFSET 0.000000 0.000000 0.000000
						}
					}
				}
			}
		}
	}
}
MOTION
Frames: 4
Frame Time: 0.016667
-0.063503 101.964684 0.447349 -4.056203 6.162634 -1.764344 4.903409 -0.349245 1.221060 5.814412 -0.121248 1.891503 0.000000 0.000000 0.000000 -4.300225 -0.608020 -1.115061 1.348863 -1.122447 0.966617 4.180611 -0.441331 -1.260351 0.000000 0.000000 0.000000 1.687379 -7.781274 -3.495010 0.000000 0.000000 0.000000 -0.671930 -2.004021 -76.954211 6.346059 -10.905883 1.751778 -0.215899 -0.743846 3.407691 -3.786638 8.458009 12.355376 7.478454 11.594939 -1.281159 1.099775 8.860685 5.173490 -0.000002 0.000000 -0.000001 2.378697 3.620425 -6.815240 0.000195 0.249698 -17.103497 0.000000 -0.000000 -0.000000 -1.935725 5.644661 -11.386963 0.106898 0.707436 -24.767393 -0.000001 0.000000 0.000002 -4.873102 10.020050 -7.875466 -0.020638 0.335917 -30.084736 0.000000 -0.000000 -0.000002 -6.437476 11.282573 -19.770915 0.037271 0.251328 -30.842143 -0.000000 -0.000000 -0.000003 2.088908 10.213784 4.097141 0.000000 0.000000 0.000000 1.436099 3.709009 75.271786 15.720268 15.338546 -4.555613 -4.674568 -0.553312 -0.689856 -0.464247 -8.992502 -6.084867 7.449364 -11.614445 1.291249 1.128416 -8.847589 -5.184695 0.000000 -0.000001 -0.000000 2.362060 -3.634247 8.333118 0.014202 -0.252981 18.622471 0.000002 -0.000000 -0.000001 -1.983681 -5.671327 13.530176 0.119633 -0.656152 26.914140 0.000002 -0.000001 -0.000001 -4.978007 -10.100871 10.695802 -0.012097 -0.340809 32.924036 0.000000 0.000000 0.000000 -6.474138 -11.323123 23.226072 0.055857 -0.250360 34.317845 0.000001 0.000000 0.000000 -2.871718 10.908461 10.574238 9.492441 -6.576690 0.233112 -3.801221 0.620121 -6.882315 -0.000187 -0.000002 0.000012 -0.000000 0.000000 -0.000000 -1.008794 -5.956669 1.828649 8.281060 3.404959 -0.558269 -3.024274 0.056386 0.216859 -0.001321 0.000003 0.000001 -0.000000 0.000000 0.000000 
-0.067165 101.950058 0.483022 -4.045370 5.950419 -1.788801 5.236347 -0.322761 1.180469 5.633654 -0.121062 1.918716 0.000000 0.000000 0.000000 -4.352966 -0.591953 -1.049514 1.377147 -1.090219 0.931312 3.936335 -0.412711 -1.296462 -0.000000 0.000000 -0.000000 1.651269 -7.731093 -3.681486 0.000000 0.000000 0.000000 -0.695458 -2.100490 -76.810914 6.241776 -10.917064 1.584177 -0.232983 -0.585450 3.802325 -3.785244 8.454641 12.355338 7.482389 11.596688 -1.286038 1.098169 8.860600 5.176389 -0.000000 -0.000003 -0.000003 2.379206 3.629041 -6.788388 0.000131 0.249697 -17.091003 -0.000000 0.000000 0.000001 -1.939391 5.657827 -11.364484 0.106889 0.707410 -24.761669 0.000001 -0.000000 -0.000004 -4.878420 10.039908 -7.848574 -0.020615 0.335913 -30.084733 0.000000 0.000000 -0.000001 -6.440634 11.305769 -19.752721 0.037307 0.251351 -30.842105 -0.000000 0.000000 0.000000 2.064652 10.089336 4.140847 0.000000 0.000000 0.000000 1.630633 4.074595 75.042127 15.586949 15.435712 -4.453104 -5.016228 -0.489183 -0.883014 -0.464702 -9.050172 -6.077189 7.438700 -11.615220 1.273100 1.122871 -8.803514 -5.159483 0.000004 -0.000001 -0.000001 2.380999 -3.625712 8.514086 0.014268 -0.253034 18.699436 -0.000001 -0.000000 -0.000000 -1.956560 -5.652399 13.660312 0.119705 -0.656242 26.931504 -0.000000 -0.000001 0.000000 -4.927675 -10.055866 10.840810 -0.012111 -0.340701 32.907756 -0.000002 -0.000001 -0.000002 -6.435789 -11.256297 23.302833 0.055755 -0.250267 34.290230 -0.000001 -0.000001 -0.000003 -2.861024 10.997761 10.640259 9.562618 -6.468942 0.193502 -3.889198 0.624466 -6.890704 -0.042018 -0.042897 0.052604 0.000000 -0.000001 -0.000000 -1.106804 -5.991354 1.802942 8.413676 3.650117 -0.485944 -3.059765 0.059364 0.145025 0.008287 0.002916 0.005662 -0.000000 -0.000000 0.000000 
-0.070968 101.930695 0.520671 -3.951537 5.765145 -1.818063 5.415793 -0.328464 1.196678 5.522214 -0.132479 1.904806 0.000000 0.000000 0.000000 -4.333486 -0.594682 -1.023816 1.247723 -1.042278 0.952613 3.900949 -0.349568 -1.362773 0.000000 -0.000000 0.000000 1.620308 -7.552168 -3.860861 0.000000 0.000000 0.000000 -0.751191 -2.300622 -76.607156 6.273865 -11.004185 1.438899 -0.243640 -0.478225 4.018973 -3.781383 8.444588 12.355054 7.491351 11.602865 -1.294918 1.093877 8.860350 5.184063 -0.000001 0.000001 0.000000 2.378284 3.651465 -6.736829 0.000120 0.249667 -17.072094 0.000000 -0.000000 0.000001 -1.949739 5.684353 -11.316855 0.106864 0.707402 -24.756646 0.000001 0.000000 0.000001 -4.898101 10.077523 -7.782049 -0.020654 0.335928 -30.084716 0.000000 -0.000000 -0.000004 -6.457031 11.350214 -19.703767 0.037299 0.251344 -30.842139 -0.000000 0.000000 0.000001 1.990164 10.065644 4.383189 0.000000 0.000000 0.000000 2.016830 4.166794 74.641926 15.644905 15.971445 -4.499047 -5.149047 -0.647287 -1.037969 -0.465259 -9.107760 -6.069220 7.427799 -11.616011 1.254605 1.114830 -8.760903 -5.132265 0.000004 -0.000001 -0.000002 2.399821 -3.617042 8.697703 0.014318 -0.253097 18.778307 -0.000003 -0.000000 -0.000001 -1.929487 -5.635149 13.790686 0.119803 -0.656303 26.948935 -0.000000 0.000002 -0.000000 -4.877850 -10.011682 10.983896 -0.012129 -0.340588 32.890055 -0.000003 0.000000 0.000000 -6.398385 -11.189230 23.375001 0.055647 -0.250145 34.259495 0.000000 -0.000002 -0.000004 -2.960055 11.016839 10.681925 9.675164 -6.323523 0.185389 -3.981741 0.629854 -6.911623 -0.075676 -0.067595 0.094659 -0.000000 -0.000000 -0.000000 -1.321556 -5.978608 1.796300 8.585333 3.896564 -0.453094 -3.088142 0.060622 0.104759 -0.062530 -0.102868 0.024831 0.000000 -0.000001 -0.000000 
-0.096598 101.905060 0.560652 -3.895734 5.563777 -1.857336 5.796552 -0.335625 1.130368 5.242578 -0.156766 1.980718 0.000000 0.000000 0.000000 -4.477640 -0.616532 -0.907269 1.569828 -0.951847 0.854657 3.456796 -0.286825 -1.374109 0.000001 -0.000000 0.000000 1.575139 -7.497788 -4.111633 0.000000 0.000000 0.000000 -0.649931 -2.291438 -76.423273 6.332387 -11.136890 1.329746 -0.228587 -0.569913 4.292985 -3.777151 8.428106 12.358928 7.504809 11.613066 -1.307491 1.087081 8.859928 5.196214 -0.000001 0.000000 -0.000000 2.372267 3.686783 -6.663257 0.000118 0.249634 -17.048057 0.000001 -0.000000 -0.000000 -1.965975 5.722492 -11.247117 0.106860 0.707376 -24.752438 -0.000000 0.000000 0.000002 -4.930794 10.130581 -7.680374 -0.020618 0.335940 -30.088308 -0.000000 0.000000 -0.000002 -6.485183 11.413301 -19.627471 0.037288 0.251328 -30.842105 0.000000 -0.000000 -0.000002 1.992627 10.037301 4.259008 0.000000 0.000000 0.000000 2.129314 4.477105 74.585720 15.564224 15.783205 -4.347647 -5.452084 -0.363440 -1.427768 -0.465848 -9.165413 -6.061389 7.416871 -11.616836 1.235988 1.107094 -8.718331 -5.104514 0.000000 0.000001 0.000001 2.418913 -3.608130 8.883902 0.014414 -0.253168 18.859047 -0.000004 0.000000 -0.000001 -1.902500 -5.619323 13.921307 0.119916 -0.656333 26.966570 0.000000 0.000001 -0.000002 -4.828697 -9.968004 11.124725 -0.012141 -0.340473 32.871440 0.000001 -0.000001 0.000000 -6.362058 -11.121736 23.442857 0.055557 -0.249999 34.225907 0.000001 -0.000000 -0.000002 -3.050020 11.089898 10.781533 9.819242 -6.230376 0.150705 -4.092037 0.636365 -6.934417 -0.089924 -0.105152 0.112468 -0.000000 0.000001 0.000000 -1.511673 -5.955300 1.804489 8.801119 4.031000 -0.396843 -3.146035 0.062243 0.033394 -0.045187 -0.038574 0.001638 0.000000 -0.000000 -0.000000 
